<svg xmlns="http://www.w3.org/2000/svg" viewBox="0 0 64 64" role="img" aria-labelledby="faviconTitle">
  <title id="faviconTitle">Samuel Bernardes favicon</title>
  <defs>
    <linearGradient id="bg" x1="8" y1="6" x2="56" y2="58" gradientUnits="userSpaceOnUse">
      <stop offset="0" stop-color="#111827" />
      <stop offset="1" stop-color="#312e81" />
    </linearGradient>
    <linearGradient id="accent" x1="18" y1="14" x2="47" y2="49" gradientUnits="userSpaceOnUse">
      <stop offset="0" stop-color="#f8fafc" />
      <stop offset="1" stop-color="#c4b5fd" />
    </linearGradient>
  </defs>
  <rect x="4" y="4" width="56" height="56" rx="16" fill="url(#bg)" />
  <path
    d="M24 18h12c6.3 0 10 3.1 10 8.4 0 3.3-1.7 5.8-4.6 7 3.6 1.1 5.6 3.8 5.6 7.8 0 6-4.1 9.8-11.3 9.8H24V44h11.2c2.9 0 4.7-1.5 4.7-4s-1.8-3.9-4.7-3.9H27v-6.5h7.5c2.7 0 4.3-1.3 4.3-3.5s-1.6-3.4-4.3-3.4H24V18Z"
    fill="url(#accent)"
  />
  <path
    d="M20.5 19.8c-5.1 0-8.5 2.7-8.5 6.8 0 3.4 2 5.4 6.8 6.7l4 1.1c2.1.6 2.9 1.2 2.9 2.4 0 1.5-1.5 2.6-4 2.6-2.9 0-5.4-1.2-7.7-3.7v7.9c2.2 1.6 4.9 2.4 8.2 2.4 6.2 0 10.2-3.1 10.2-7.9 0-3.6-1.9-5.7-6.5-7l-4.2-1.1c-2.2-.6-3.1-1.2-3.1-2.4 0-1.3 1.2-2.1 3.2-2.1 2.5 0 4.8.9 7 2.8v-7.5c-2.3-1.3-4.8-2-8.3-2Z"
    fill="#8b5cf6"
  />
</svg>
